<svg width="135" height="32" viewBox="0 0 135 32" fill="none" xmlns="http://www.w3.org/2000/svg">
<path d="M56.7814 23.844C56.9574 24.812 57.6834 25.01 57.6834 25.56V25.626C57.6834 25.868 57.4854 26 57.1774 26H53.2174C52.9314 26 52.7114 25.868 52.7114 25.626V25.56C52.7114 25.01 53.6574 24.812 53.4814 23.844L51.9414 15.11L48.2234 25.384C48.0914 25.78 47.9154 25.978 47.5194 25.978C47.1234 25.978 46.8814 25.802 46.7054 25.406L42.6354 14.714L41.2274 23.844C41.0734 24.812 42.0194 25.01 42.0194 25.56V25.626C42.0194 25.868 41.8434 26 41.5354 26H39.0494C38.7414 26 38.5654 25.868 38.5654 25.626V25.56C38.5654 25.01 39.2914 24.812 39.4454 23.844L41.2714 12.514C41.4034 11.59 40.4574 11.392 40.4574 10.82V10.754C40.4574 10.534 40.6334 10.38 40.9194 10.38H43.3394C43.8674 10.38 44.2414 10.622 44.4174 11.106L47.9814 21.468L51.5014 11.106C51.6774 10.622 52.0074 10.38 52.5134 10.38H55.0434C55.3074 10.38 55.5054 10.512 55.5054 10.732V10.82C55.5054 11.392 54.4934 11.59 54.6694 12.602L56.7814 23.844ZM67.3132 22.656C67.5772 22.326 68.0832 22.436 68.0612 22.898C67.9292 24.174 66.4332 26.22 63.5952 26.22C60.5372 26.22 58.2712 24.02 58.2712 20.632C58.2712 17.442 60.7132 15.22 63.5952 15.22C66.4772 15.22 67.7532 16.892 67.7532 18.344C67.7532 19.092 67.3792 19.532 66.7852 19.796L61.9012 22.018C62.4732 23.228 63.4852 23.932 64.8052 23.932C65.9712 23.932 66.8952 23.338 67.3132 22.656ZM63.1992 16.188C62.0332 16.188 61.3292 17.442 61.3292 19.114C61.3292 19.796 61.3952 20.434 61.5492 21.006L64.3872 19.576C64.7832 19.378 64.9592 19.004 64.9592 18.542C64.9592 17.75 64.3872 16.188 63.1992 16.188ZM87.4479 23.866C87.5139 24.834 88.2399 25.01 88.2399 25.56V25.648C88.2399 25.89 88.0419 26.022 87.7559 26.022H83.9499C83.6419 26.022 83.4439 25.89 83.4439 25.648V25.56C83.4439 25.01 84.2799 24.834 84.2139 23.888L83.9939 19.862C83.8839 17.376 83.2459 16.474 82.0799 16.474C81.0459 16.474 80.3419 17.442 80.2979 18.762C80.3639 19.092 80.3859 19.444 80.3859 19.818V23.888C80.3859 24.834 81.1559 25.01 81.1559 25.56V25.648C81.1559 25.89 80.9579 26.022 80.6719 26.022H76.8659C76.5799 26.022 76.3599 25.89 76.3599 25.648V25.56C76.3599 25.01 77.1519 24.834 77.1519 23.888V19.598C77.1519 17.552 76.3599 16.474 75.2379 16.474C74.0279 16.474 73.3459 17.53 73.3459 18.916V23.888C73.3459 24.834 74.2919 25.01 74.2919 25.56V25.648C74.2919 25.89 74.0939 26.022 73.7859 26.022H69.6939C69.4079 26.022 69.1879 25.89 69.1879 25.648V25.56C69.1879 25.01 70.1339 24.834 70.1339 23.888V18.762C70.1339 17.794 69.0559 17.684 69.0559 17.134V17.046C69.0559 16.826 69.2539 16.716 69.5179 16.584L72.2899 15.308C72.7959 15.044 73.0599 15.352 73.0599 15.77V16.804C73.6979 15.836 74.7979 15.22 76.0959 15.22C77.6579 15.22 78.9999 15.902 79.7479 17.2C80.3419 15.946 81.6179 15.22 83.0919 15.22C85.0939 15.22 86.9199 16.364 87.1839 19.95L87.4479 23.866ZM98.2078 22.656C98.4718 22.326 98.9778 22.436 98.9558 22.898C98.8238 24.174 97.3278 26.22 94.4898 26.22C91.4318 26.22 89.1658 24.02 89.1658 20.632C89.1658 17.442 91.6078 15.22 94.4898 15.22C97.3718 15.22 98.6478 16.892 98.6478 18.344C98.6478 19.092 98.2738 19.532 97.6798 19.796L92.7958 22.018C93.3678 23.228 94.3798 23.932 95.6998 23.932C96.8658 23.932 97.7898 23.338 98.2078 22.656ZM94.0938 16.188C92.9278 16.188 92.2238 17.442 92.2238 19.114C92.2238 19.796 92.2898 20.434 92.4438 21.006L95.2818 19.576C95.6778 19.378 95.8538 19.004 95.8538 18.542C95.8538 17.75 95.2818 16.188 94.0938 16.188ZM111.5 23.866C111.566 24.834 112.292 25.01 112.292 25.56V25.648C112.292 25.868 112.094 26.022 111.786 26.022H107.98C107.672 26.022 107.474 25.868 107.474 25.648V25.56C107.474 25.01 108.31 24.834 108.266 23.866L108.046 19.796C107.936 17.442 107.298 16.474 106.132 16.474C104.944 16.474 104.262 17.464 104.262 18.894V23.888C104.262 24.834 105.208 25.01 105.208 25.56V25.648C105.208 25.868 105.01 26.022 104.702 26.022H100.61C100.302 26.022 100.104 25.868 100.104 25.648V25.56C100.104 25.01 101.05 24.834 101.05 23.888V18.762C101.05 17.772 99.9724 17.684 99.9724 17.134V17.046C99.9724 16.826 100.148 16.716 100.412 16.584L103.03 15.308C103.536 15.044 103.778 15.352 103.778 15.77V17.002C104.372 15.88 105.538 15.22 107.034 15.22C109.036 15.22 110.972 16.408 111.236 19.906L111.5 23.866ZM117.543 26.22C115.541 26.22 114.221 24.922 114.221 22.414V16.716H113.187C112.923 16.716 112.747 16.54 112.747 16.276V15.902C112.747 15.616 112.901 15.44 113.187 15.44H113.737C114.969 15.44 115.827 14.56 116.069 13.262C116.135 12.932 116.333 12.734 116.575 12.734H117.015C117.323 12.734 117.499 12.932 117.499 13.262L117.521 15.44H120.051C120.293 15.44 120.491 15.638 120.491 15.902V16.276C120.491 16.54 120.293 16.716 120.051 16.716H117.521V22.458C117.521 23.338 118.005 23.866 118.643 23.866C119.523 23.866 119.963 23.382 120.139 22.876C120.403 22.502 120.931 22.59 120.931 23.008C120.931 24.592 119.743 26.22 117.543 26.22ZM127.57 26.22C124.028 26.22 121.542 23.712 121.542 20.654C121.542 17.464 124.16 15.22 127.24 15.22C130.628 15.22 133.158 17.64 133.158 20.764C133.158 23.888 130.782 26.22 127.57 26.22ZM127.966 25.252C129.154 25.252 129.858 24.086 129.858 22.062C129.858 19.664 128.67 16.188 126.8 16.188C125.48 16.188 124.776 17.31 124.776 19.4C124.776 21.644 125.964 25.252 127.966 25.252Z" fill="#2F3943"/>
<path d="M15.498 15.951V31.9021L7.88488 27.8801C5.48834 26.614 3.98889 24.1259 3.98889 21.4155V14.1024C3.98889 11.8197 6.49075 10.4201 8.43595 11.6146L15.498 15.951Z" fill="url(#paint0_linear_18_1067)"/>
<path d="M15.4969 15.951V31.9021L23.11 27.8801C25.5065 26.614 27.006 24.1259 27.006 21.4155V14.1024C27.006 11.8197 24.5041 10.4201 22.5589 11.6146L15.4969 15.951Z" fill="url(#paint1_linear_18_1067)"/>
<g clip-path="url(#clip0_18_1067)">
<path d="M14.4136 3.99627C14.7425 3.03376 16.0724 3.00461 16.4624 3.90882L16.4954 3.99682L16.9392 5.29483C17.0409 5.59251 17.2053 5.86491 17.4213 6.09367C17.6372 6.32242 17.8997 6.5022 18.191 6.62089L18.3104 6.66544L19.6084 7.10874C20.5709 7.43764 20.6 8.76755 19.6964 9.15751L19.6084 9.19051L18.3104 9.63436C18.0126 9.73601 17.7401 9.90036 17.5112 10.1163C17.2824 10.3323 17.1025 10.5948 16.9838 10.8862L16.9392 11.005L16.4959 12.3035C16.167 13.266 14.8371 13.2952 14.4477 12.3915L14.4136 12.3035L13.9703 11.0055C13.8686 10.7077 13.7043 10.4352 13.4884 10.2064C13.2724 9.97752 13.0099 9.79766 12.7185 9.67891L12.5997 9.63436L11.3017 9.19106C10.3386 8.86216 10.3095 7.53225 11.2137 7.14284L11.3017 7.10874L12.5997 6.66544C12.8974 6.56372 13.1698 6.39934 13.3985 6.1834C13.6273 5.96745 13.8071 5.70496 13.9257 5.41363L13.9703 5.29483L14.4136 3.99627ZM19.8548 2.09985C19.9577 2.09985 20.0585 2.12872 20.1458 2.18316C20.2331 2.23761 20.3034 2.31546 20.3487 2.40786L20.3751 2.47221L20.5676 3.03651L21.1325 3.22901C21.2356 3.26405 21.326 3.3289 21.3922 3.41536C21.4584 3.50182 21.4975 3.606 21.5044 3.71468C21.5114 3.82336 21.4859 3.93166 21.4312 4.02585C21.3766 4.12004 21.2952 4.19589 21.1974 4.24377L21.1325 4.27017L20.5681 4.46267L20.3756 5.02753C20.3406 5.13061 20.2756 5.22096 20.1892 5.28712C20.1027 5.35329 19.9985 5.39228 19.8898 5.39918C19.7811 5.40607 19.6728 5.38054 19.5787 5.32584C19.4845 5.27113 19.4087 5.1897 19.3609 5.09188L19.3345 5.02753L19.142 4.46322L18.5771 4.27072C18.474 4.23569 18.3836 4.17083 18.3174 4.08437C18.2512 3.99791 18.2121 3.89374 18.2052 3.78506C18.1982 3.67637 18.2237 3.56807 18.2784 3.47388C18.333 3.37969 18.4144 3.30385 18.5122 3.25596L18.5771 3.22956L19.1414 3.03706L19.3339 2.47221C19.371 2.36354 19.4412 2.2692 19.5346 2.20243C19.628 2.13565 19.74 2.09978 19.8548 2.09985Z" fill="url(#paint2_linear_18_1067)"/>
</g>
<defs>
<linearGradient id="paint0_linear_18_1067" x1="9.74343" y1="8.88385" x2="9.74343" y2="31.9021" gradientUnits="userSpaceOnUse">
<stop stop-color="#7B3EC9"/>
<stop offset="1" stop-color="#57219C"/>
</linearGradient>
<linearGradient id="paint1_linear_18_1067" x1="27.9133" y1="10.9672" x2="21.2514" y2="31.9021" gradientUnits="userSpaceOnUse">
<stop stop-color="#57219C"/>
<stop offset="1" stop-color="#57219C"/>
</linearGradient>
<linearGradient id="paint2_linear_18_1067" x1="16.0311" y1="2.09985" x2="16.0311" y2="13.048" gradientUnits="userSpaceOnUse">
<stop stop-color="#57219C"/>
<stop offset="1" stop-color="#6125B1"/>
</linearGradient>
<clipPath id="clip0_18_1067">
<rect width="13.2001" height="13.2001" fill="white" transform="translate(9.00476 0.999817)"/>
</clipPath>
</defs>
</svg>
